<svg width="21" height="21" viewBox="0 0 21 21" fill="none" xmlns="http://www.w3.org/2000/svg">
<path d="M16.25 8.125C16.25 9.92188 15.6641 11.6016 14.6875 12.9297L19.6094 17.8906C20.1172 18.3594 20.1172 19.1797 19.6094 19.6484C19.1406 20.1562 18.3203 20.1562 17.8516 19.6484L12.8906 14.6875C11.5625 15.7031 9.88281 16.25 8.125 16.25C3.63281 16.25 0 12.6172 0 8.125C0 3.67188 3.63281 0 8.125 0C12.5781 0 16.25 3.67188 16.25 8.125ZM8.125 13.75C11.2109 13.75 13.75 11.25 13.75 8.125C13.75 5.03906 11.2109 2.5 8.125 2.5C5 2.5 2.5 5.03906 2.5 8.125C2.5 11.25 5 13.75 8.125 13.75Z" fill="white"/>
</svg>
